<svg width="216" height="44" viewBox="0 0 216 44" fill="none" xmlns="http://www.w3.org/2000/svg">
    <path d="M34.4575 11.9573C40.0038 18.5612 39.1465 28.411 32.5425 33.9573C25.9386 39.5037 16.0889 38.6463 10.5425 32.0424C4.9962 25.4385 5.85353 15.5888 12.4575 10.0424C14.6354 8.21323 17.1664 7.08056 19.7797 6.62083" stroke="#EC0C0C" stroke-width="4.5" stroke-linecap="round"/>
    <path d="M21.2533 29.3665C20.9838 30.2334 20.0625 30.7176 19.1957 30.448C18.3288 30.1784 17.8446 29.2572 18.1142 28.3904C18.3838 27.5235 19.305 27.0393 20.1719 27.3089C21.0387 27.5785 21.5229 28.4997 21.2533 29.3665Z" fill="white"/>
    <path fill-rule="evenodd" clip-rule="evenodd" d="M28.6471 4.82838C30.2167 5.31647 30.7871 6.24972 30.5227 7.0999L23.0362 24.9406C22.7719 25.7908 21.8548 26.2615 20.988 25.9919C20.1211 25.7224 19.6327 24.8146 19.8971 23.9645L25.8141 5.63563C26.0784 4.78545 27.0775 4.34029 28.6471 4.82838Z" fill="white"/>
    <path d="M57.5566 23.7549H60.1846C60.1318 24.6162 59.8945 25.3809 59.4727 26.0488C59.0566 26.7168 58.4736 27.2383 57.7236 27.6133C56.9795 27.9883 56.083 28.1758 55.0342 28.1758C54.2139 28.1758 53.4785 28.0352 52.8281 27.7539C52.1777 27.4668 51.6211 27.0566 51.1582 26.5234C50.7012 25.9902 50.3525 25.3457 50.1123 24.5898C49.8721 23.834 49.752 22.9873 49.752 22.0498V21.1621C49.752 20.2246 49.875 19.3779 50.1211 18.6221C50.373 17.8604 50.7305 17.2129 51.1934 16.6797C51.6621 16.1465 52.2217 15.7363 52.8721 15.4492C53.5225 15.1621 54.249 15.0186 55.0518 15.0186C56.1182 15.0186 57.0176 15.2119 57.75 15.5986C58.4883 15.9854 59.0596 16.5186 59.4639 17.1982C59.874 17.8779 60.1201 18.6514 60.2021 19.5186H57.5654C57.5361 19.0029 57.4336 18.5664 57.2578 18.209C57.082 17.8457 56.8154 17.5732 56.458 17.3916C56.1064 17.2041 55.6377 17.1104 55.0518 17.1104C54.6123 17.1104 54.2285 17.1924 53.9004 17.3564C53.5723 17.5205 53.2969 17.7695 53.0742 18.1035C52.8516 18.4375 52.6846 18.8594 52.5732 19.3691C52.4678 19.873 52.415 20.4648 52.415 21.1445V22.0498C52.415 22.7119 52.4648 23.2949 52.5645 23.7988C52.6641 24.2969 52.8164 24.7188 53.0215 25.0645C53.2324 25.4043 53.502 25.6621 53.8301 25.8379C54.1641 26.0078 54.5654 26.0928 55.0342 26.0928C55.585 26.0928 56.0391 26.0049 56.3965 25.8291C56.7539 25.6533 57.0264 25.3926 57.2139 25.0469C57.4072 24.7012 57.5215 24.2705 57.5566 23.7549ZM61.3535 23.3418V23.1572C61.3535 22.46 61.4531 21.8184 61.6523 21.2324C61.8516 20.6406 62.1416 20.1279 62.5225 19.6943C62.9033 19.2607 63.3721 18.9238 63.9287 18.6836C64.4854 18.4375 65.124 18.3145 65.8447 18.3145C66.5654 18.3145 67.207 18.4375 67.7695 18.6836C68.332 18.9238 68.8037 19.2607 69.1846 19.6943C69.5713 20.1279 69.8643 20.6406 70.0635 21.2324C70.2627 21.8184 70.3623 22.46 70.3623 23.1572V23.3418C70.3623 24.0332 70.2627 24.6748 70.0635 25.2666C69.8643 25.8525 69.5713 26.3652 69.1846 26.8047C68.8037 27.2383 68.335 27.5752 67.7783 27.8154C67.2217 28.0557 66.583 28.1758 65.8623 28.1758C65.1416 28.1758 64.5 28.0557 63.9375 27.8154C63.3809 27.5752 62.9092 27.2383 62.5225 26.8047C62.1416 26.3652 61.8516 25.8525 61.6523 25.2666C61.4531 24.6748 61.3535 24.0332 61.3535 23.3418ZM63.8848 23.1572V23.3418C63.8848 23.7402 63.9199 24.1123 63.9902 24.458C64.0605 24.8037 64.1719 25.1084 64.3242 25.3721C64.4824 25.6299 64.6875 25.832 64.9395 25.9785C65.1914 26.125 65.499 26.1982 65.8623 26.1982C66.2139 26.1982 66.5156 26.125 66.7676 25.9785C67.0195 25.832 67.2217 25.6299 67.374 25.3721C67.5264 25.1084 67.6377 24.8037 67.708 24.458C67.7842 24.1123 67.8223 23.7402 67.8223 23.3418V23.1572C67.8223 22.7705 67.7842 22.4072 67.708 22.0674C67.6377 21.7217 67.5234 21.417 67.3652 21.1533C67.2129 20.8838 67.0107 20.6729 66.7588 20.5205C66.5068 20.3682 66.2021 20.292 65.8447 20.292C65.4873 20.292 65.1826 20.3682 64.9307 20.5205C64.6846 20.6729 64.4824 20.8838 64.3242 21.1533C64.1719 21.417 64.0605 21.7217 63.9902 22.0674C63.9199 22.4072 63.8848 22.7705 63.8848 23.1572ZM74.3965 20.5205V28H71.8652V18.4902H74.2383L74.3965 20.5205ZM74.0273 22.9111H73.3418C73.3418 22.208 73.4326 21.5752 73.6143 21.0127C73.7959 20.4443 74.0508 19.9609 74.3789 19.5625C74.707 19.1582 75.0967 18.8506 75.5479 18.6396C76.0049 18.4229 76.5146 18.3145 77.0771 18.3145C77.5225 18.3145 77.9297 18.3789 78.2988 18.5078C78.668 18.6367 78.9844 18.8418 79.248 19.123C79.5176 19.4043 79.7227 19.7764 79.8633 20.2393C80.0098 20.7021 80.083 21.2676 80.083 21.9355V28H77.5342V21.9268C77.5342 21.5049 77.4756 21.1768 77.3584 20.9424C77.2412 20.708 77.0684 20.5439 76.8398 20.4502C76.6172 20.3506 76.3418 20.3008 76.0137 20.3008C75.6738 20.3008 75.3779 20.3682 75.126 20.5029C74.8799 20.6377 74.6748 20.8252 74.5107 21.0654C74.3525 21.2998 74.2324 21.5752 74.1504 21.8916C74.0684 22.208 74.0273 22.5479 74.0273 22.9111ZM84.4863 20.5205V28H81.9551V18.4902H84.3281L84.4863 20.5205ZM84.1172 22.9111H83.4316C83.4316 22.208 83.5225 21.5752 83.7041 21.0127C83.8857 20.4443 84.1406 19.9609 84.4688 19.5625C84.7969 19.1582 85.1865 18.8506 85.6377 18.6396C86.0947 18.4229 86.6045 18.3145 87.167 18.3145C87.6123 18.3145 88.0195 18.3789 88.3887 18.5078C88.7578 18.6367 89.0742 18.8418 89.3379 19.123C89.6074 19.4043 89.8125 19.7764 89.9531 20.2393C90.0996 20.7021 90.1729 21.2676 90.1729 21.9355V28H87.624V21.9268C87.624 21.5049 87.5654 21.1768 87.4482 20.9424C87.3311 20.708 87.1582 20.5439 86.9297 20.4502C86.707 20.3506 86.4316 20.3008 86.1035 20.3008C85.7637 20.3008 85.4678 20.3682 85.2158 20.5029C84.9697 20.6377 84.7646 20.8252 84.6006 21.0654C84.4424 21.2998 84.3223 21.5752 84.2402 21.8916C84.1582 22.208 84.1172 22.5479 84.1172 22.9111ZM96.4746 28.1758C95.7363 28.1758 95.0742 28.0586 94.4883 27.8242C93.9023 27.584 93.4043 27.2529 92.9941 26.8311C92.5898 26.4092 92.2793 25.9199 92.0625 25.3633C91.8457 24.8008 91.7373 24.2031 91.7373 23.5703V23.2188C91.7373 22.498 91.8398 21.8389 92.0449 21.2412C92.25 20.6436 92.543 20.125 92.9238 19.6855C93.3105 19.2461 93.7793 18.9092 94.3301 18.6748C94.8809 18.4346 95.502 18.3145 96.1934 18.3145C96.8672 18.3145 97.4648 18.4258 97.9863 18.6484C98.5078 18.8711 98.9443 19.1875 99.2959 19.5977C99.6533 20.0078 99.9229 20.5 100.104 21.0742C100.286 21.6426 100.377 22.2754 100.377 22.9727V24.0273H92.8184V22.3398H97.8896V22.1465C97.8896 21.7949 97.8252 21.4814 97.6963 21.2061C97.5732 20.9248 97.3857 20.7021 97.1338 20.5381C96.8818 20.374 96.5596 20.292 96.167 20.292C95.833 20.292 95.5459 20.3652 95.3057 20.5117C95.0654 20.6582 94.8691 20.8633 94.7168 21.127C94.5703 21.3906 94.459 21.7012 94.3828 22.0586C94.3125 22.4102 94.2773 22.7969 94.2773 23.2188V23.5703C94.2773 23.9512 94.3301 24.3027 94.4355 24.625C94.5469 24.9473 94.7021 25.2256 94.9014 25.46C95.1064 25.6943 95.3525 25.876 95.6396 26.0049C95.9326 26.1338 96.2637 26.1982 96.6328 26.1982C97.0898 26.1982 97.5146 26.1104 97.9072 25.9346C98.3057 25.7529 98.6484 25.4805 98.9355 25.1172L100.166 26.4531C99.9668 26.7402 99.6943 27.0156 99.3486 27.2793C99.0088 27.543 98.5986 27.7598 98.1182 27.9297C97.6377 28.0938 97.0898 28.1758 96.4746 28.1758ZM105.747 26.1982C106.058 26.1982 106.333 26.1396 106.573 26.0225C106.813 25.8994 107.001 25.7295 107.136 25.5127C107.276 25.29 107.35 25.0293 107.355 24.7305H109.737C109.731 25.3984 109.553 25.9932 109.201 26.5146C108.85 27.0303 108.378 27.4375 107.786 27.7363C107.194 28.0293 106.532 28.1758 105.8 28.1758C105.062 28.1758 104.417 28.0527 103.866 27.8066C103.321 27.5605 102.867 27.2207 102.504 26.7871C102.141 26.3477 101.868 25.8379 101.687 25.2578C101.505 24.6719 101.414 24.0449 101.414 23.377V23.1221C101.414 22.4482 101.505 21.8213 101.687 21.2412C101.868 20.6553 102.141 20.1455 102.504 19.7119C102.867 19.2725 103.321 18.9297 103.866 18.6836C104.411 18.4375 105.05 18.3145 105.782 18.3145C106.562 18.3145 107.244 18.4639 107.83 18.7627C108.422 19.0615 108.885 19.4893 109.219 20.0459C109.559 20.5967 109.731 21.25 109.737 22.0059H107.355C107.35 21.6895 107.282 21.4023 107.153 21.1445C107.03 20.8867 106.849 20.6816 106.608 20.5293C106.374 20.3711 106.084 20.292 105.738 20.292C105.369 20.292 105.067 20.3711 104.833 20.5293C104.599 20.6816 104.417 20.8926 104.288 21.1621C104.159 21.4258 104.068 21.7275 104.016 22.0674C103.969 22.4014 103.945 22.7529 103.945 23.1221V23.377C103.945 23.7461 103.969 24.1006 104.016 24.4404C104.062 24.7803 104.15 25.082 104.279 25.3457C104.414 25.6094 104.599 25.8174 104.833 25.9697C105.067 26.1221 105.372 26.1982 105.747 26.1982ZM115.863 18.4902V20.2832H110.326V18.4902H115.863ZM111.697 16.1436H114.229V25.1348C114.229 25.4102 114.264 25.6211 114.334 25.7676C114.41 25.9141 114.521 26.0166 114.668 26.0752C114.814 26.1279 114.999 26.1543 115.222 26.1543C115.38 26.1543 115.521 26.1484 115.644 26.1367C115.772 26.1191 115.881 26.1016 115.969 26.084L115.978 27.9473C115.761 28.0176 115.526 28.0732 115.274 28.1143C115.022 28.1553 114.744 28.1758 114.439 28.1758C113.883 28.1758 113.396 28.085 112.98 27.9033C112.57 27.7158 112.254 27.417 112.031 27.0068C111.809 26.5967 111.697 26.0576 111.697 25.3896V16.1436ZM119.977 18.4902V28H117.437V18.4902H119.977ZM117.278 16.0117C117.278 15.6426 117.407 15.3379 117.665 15.0977C117.923 14.8574 118.269 14.7373 118.702 14.7373C119.13 14.7373 119.473 14.8574 119.73 15.0977C119.994 15.3379 120.126 15.6426 120.126 16.0117C120.126 16.3809 119.994 16.6855 119.73 16.9258C119.473 17.166 119.13 17.2861 118.702 17.2861C118.269 17.2861 117.923 17.166 117.665 16.9258C117.407 16.6855 117.278 16.3809 117.278 16.0117ZM121.664 23.3418V23.1572C121.664 22.46 121.764 21.8184 121.963 21.2324C122.162 20.6406 122.452 20.1279 122.833 19.6943C123.214 19.2607 123.683 18.9238 124.239 18.6836C124.796 18.4375 125.435 18.3145 126.155 18.3145C126.876 18.3145 127.518 18.4375 128.08 18.6836C128.643 18.9238 129.114 19.2607 129.495 19.6943C129.882 20.1279 130.175 20.6406 130.374 21.2324C130.573 21.8184 130.673 22.46 130.673 23.1572V23.3418C130.673 24.0332 130.573 24.6748 130.374 25.2666C130.175 25.8525 129.882 26.3652 129.495 26.8047C129.114 27.2383 128.646 27.5752 128.089 27.8154C127.532 28.0557 126.894 28.1758 126.173 28.1758C125.452 28.1758 124.811 28.0557 124.248 27.8154C123.691 27.5752 123.22 27.2383 122.833 26.8047C122.452 26.3652 122.162 25.8525 121.963 25.2666C121.764 24.6748 121.664 24.0332 121.664 23.3418ZM124.195 23.1572V23.3418C124.195 23.7402 124.23 24.1123 124.301 24.458C124.371 24.8037 124.482 25.1084 124.635 25.3721C124.793 25.6299 124.998 25.832 125.25 25.9785C125.502 26.125 125.81 26.1982 126.173 26.1982C126.524 26.1982 126.826 26.125 127.078 25.9785C127.33 25.832 127.532 25.6299 127.685 25.3721C127.837 25.1084 127.948 24.8037 128.019 24.458C128.095 24.1123 128.133 23.7402 128.133 23.3418V23.1572C128.133 22.7705 128.095 22.4072 128.019 22.0674C127.948 21.7217 127.834 21.417 127.676 21.1533C127.523 20.8838 127.321 20.6729 127.069 20.5205C126.817 20.3682 126.513 20.292 126.155 20.292C125.798 20.292 125.493 20.3682 125.241 20.5205C124.995 20.6729 124.793 20.8838 124.635 21.1533C124.482 21.417 124.371 21.7217 124.301 22.0674C124.23 22.4072 124.195 22.7705 124.195 23.1572ZM134.707 20.5205V28H132.176V18.4902H134.549L134.707 20.5205ZM134.338 22.9111H133.652C133.652 22.208 133.743 21.5752 133.925 21.0127C134.106 20.4443 134.361 19.9609 134.689 19.5625C135.018 19.1582 135.407 18.8506 135.858 18.6396C136.315 18.4229 136.825 18.3145 137.388 18.3145C137.833 18.3145 138.24 18.3789 138.609 18.5078C138.979 18.6367 139.295 18.8418 139.559 19.123C139.828 19.4043 140.033 19.7764 140.174 20.2393C140.32 20.7021 140.394 21.2676 140.394 21.9355V28H137.845V21.9268C137.845 21.5049 137.786 21.1768 137.669 20.9424C137.552 20.708 137.379 20.5439 137.15 20.4502C136.928 20.3506 136.652 20.3008 136.324 20.3008C135.984 20.3008 135.688 20.3682 135.437 20.5029C135.19 20.6377 134.985 20.8252 134.821 21.0654C134.663 21.2998 134.543 21.5752 134.461 21.8916C134.379 22.208 134.338 22.5479 134.338 22.9111ZM149.473 18.4902V28H146.933V18.4902H149.473ZM146.774 16.0117C146.774 15.6426 146.903 15.3379 147.161 15.0977C147.419 14.8574 147.765 14.7373 148.198 14.7373C148.626 14.7373 148.969 14.8574 149.227 15.0977C149.49 15.3379 149.622 15.6426 149.622 16.0117C149.622 16.3809 149.49 16.6855 149.227 16.9258C148.969 17.166 148.626 17.2861 148.198 17.2861C147.765 17.2861 147.419 17.166 147.161 16.9258C146.903 16.6855 146.774 16.3809 146.774 16.0117ZM156.706 25.3721C156.706 25.1904 156.653 25.0264 156.548 24.8799C156.442 24.7334 156.246 24.5986 155.959 24.4756C155.678 24.3467 155.271 24.2295 154.737 24.124C154.257 24.0186 153.809 23.8867 153.393 23.7285C152.982 23.5645 152.625 23.3682 152.32 23.1396C152.021 22.9111 151.787 22.6416 151.617 22.3311C151.447 22.0146 151.362 21.6543 151.362 21.25C151.362 20.8516 151.447 20.4766 151.617 20.125C151.793 19.7734 152.042 19.4629 152.364 19.1934C152.692 18.918 153.091 18.7041 153.56 18.5518C154.034 18.3936 154.567 18.3145 155.159 18.3145C155.985 18.3145 156.694 18.4463 157.286 18.71C157.884 18.9736 158.341 19.3369 158.657 19.7998C158.979 20.2568 159.141 20.7783 159.141 21.3643H156.609C156.609 21.1182 156.557 20.8984 156.451 20.7051C156.352 20.5059 156.193 20.3506 155.977 20.2393C155.766 20.1221 155.49 20.0635 155.15 20.0635C154.869 20.0635 154.626 20.1133 154.421 20.2129C154.216 20.3066 154.058 20.4355 153.946 20.5996C153.841 20.7578 153.788 20.9336 153.788 21.127C153.788 21.2734 153.817 21.4053 153.876 21.5225C153.94 21.6338 154.043 21.7363 154.184 21.8301C154.324 21.9238 154.506 22.0117 154.729 22.0938C154.957 22.1699 155.238 22.2402 155.572 22.3047C156.258 22.4453 156.87 22.6299 157.409 22.8584C157.948 23.0811 158.376 23.3857 158.692 23.7725C159.009 24.1533 159.167 24.6543 159.167 25.2754C159.167 25.6973 159.073 26.084 158.886 26.4355C158.698 26.7871 158.429 27.0947 158.077 27.3584C157.726 27.6162 157.304 27.8184 156.812 27.9648C156.325 28.1055 155.777 28.1758 155.168 28.1758C154.283 28.1758 153.533 28.0176 152.918 27.7012C152.309 27.3848 151.846 26.9834 151.529 26.4971C151.219 26.0049 151.063 25.501 151.063 24.9854H153.463C153.475 25.3311 153.562 25.6094 153.727 25.8203C153.896 26.0312 154.11 26.1836 154.368 26.2773C154.632 26.3711 154.916 26.418 155.221 26.418C155.549 26.418 155.821 26.374 156.038 26.2861C156.255 26.1924 156.419 26.0693 156.53 25.917C156.647 25.7588 156.706 25.5771 156.706 25.3721ZM168.519 28H165.97V17.6465C165.97 16.9258 166.11 16.3193 166.392 15.8271C166.679 15.3291 167.08 14.9541 167.596 14.7021C168.117 14.4443 168.735 14.3154 169.45 14.3154C169.685 14.3154 169.91 14.333 170.127 14.3682C170.344 14.3975 170.555 14.4355 170.76 14.4824L170.733 16.3896C170.622 16.3604 170.505 16.3398 170.382 16.3281C170.259 16.3164 170.115 16.3105 169.951 16.3105C169.646 16.3105 169.386 16.3633 169.169 16.4688C168.958 16.5684 168.797 16.7178 168.686 16.917C168.574 17.1162 168.519 17.3594 168.519 17.6465V28ZM170.417 18.4902V20.2832H164.555V18.4902H170.417ZM176.877 25.8555V21.6191C176.877 21.3145 176.827 21.0537 176.728 20.8369C176.628 20.6143 176.473 20.4414 176.262 20.3184C176.057 20.1953 175.79 20.1338 175.462 20.1338C175.181 20.1338 174.938 20.1836 174.732 20.2832C174.527 20.377 174.369 20.5146 174.258 20.6963C174.146 20.8721 174.091 21.0801 174.091 21.3203H171.56C171.56 20.916 171.653 20.5322 171.841 20.1689C172.028 19.8057 172.301 19.4863 172.658 19.2109C173.016 18.9297 173.44 18.71 173.933 18.5518C174.431 18.3936 174.987 18.3145 175.603 18.3145C176.341 18.3145 176.997 18.4375 177.571 18.6836C178.146 18.9297 178.597 19.2988 178.925 19.791C179.259 20.2832 179.426 20.8984 179.426 21.6367V25.7061C179.426 26.2275 179.458 26.6553 179.522 26.9893C179.587 27.3174 179.681 27.6045 179.804 27.8506V28H177.246C177.123 27.7422 177.029 27.4199 176.965 27.0332C176.906 26.6406 176.877 26.248 176.877 25.8555ZM177.211 22.208L177.229 23.6406H175.813C175.479 23.6406 175.189 23.6787 174.943 23.7549C174.697 23.8311 174.495 23.9395 174.337 24.0801C174.179 24.2148 174.062 24.373 173.985 24.5547C173.915 24.7363 173.88 24.9355 173.88 25.1523C173.88 25.3691 173.93 25.5654 174.029 25.7412C174.129 25.9111 174.272 26.0459 174.46 26.1455C174.647 26.2393 174.867 26.2861 175.119 26.2861C175.5 26.2861 175.831 26.21 176.112 26.0576C176.394 25.9053 176.61 25.7178 176.763 25.4951C176.921 25.2725 177.003 25.0615 177.009 24.8623L177.677 25.9346C177.583 26.1748 177.454 26.4238 177.29 26.6816C177.132 26.9395 176.93 27.1826 176.684 27.4111C176.438 27.6338 176.142 27.8184 175.796 27.9648C175.45 28.1055 175.04 28.1758 174.565 28.1758C173.962 28.1758 173.414 28.0557 172.922 27.8154C172.436 27.5693 172.049 27.2324 171.762 26.8047C171.48 26.3711 171.34 25.8789 171.34 25.3281C171.34 24.8301 171.434 24.3877 171.621 24.001C171.809 23.6143 172.084 23.2891 172.447 23.0254C172.816 22.7559 173.276 22.5537 173.827 22.4189C174.378 22.2783 175.017 22.208 175.743 22.208H177.211ZM184.049 18.4902V28H181.509V18.4902H184.049ZM181.351 16.0117C181.351 15.6426 181.479 15.3379 181.737 15.0977C181.995 14.8574 182.341 14.7373 182.774 14.7373C183.202 14.7373 183.545 14.8574 183.803 15.0977C184.066 15.3379 184.198 15.6426 184.198 16.0117C184.198 16.3809 184.066 16.6855 183.803 16.9258C183.545 17.166 183.202 17.2861 182.774 17.2861C182.341 17.2861 181.995 17.166 181.737 16.9258C181.479 16.6855 181.351 16.3809 181.351 16.0117ZM188.812 14.5V28H186.272V14.5H188.812ZM195.281 28.1758C194.543 28.1758 193.881 28.0586 193.295 27.8242C192.709 27.584 192.211 27.2529 191.801 26.8311C191.396 26.4092 191.086 25.9199 190.869 25.3633C190.652 24.8008 190.544 24.2031 190.544 23.5703V23.2188C190.544 22.498 190.646 21.8389 190.852 21.2412C191.057 20.6436 191.35 20.125 191.73 19.6855C192.117 19.2461 192.586 18.9092 193.137 18.6748C193.688 18.4346 194.309 18.3145 195 18.3145C195.674 18.3145 196.271 18.4258 196.793 18.6484C197.314 18.8711 197.751 19.1875 198.103 19.5977C198.46 20.0078 198.729 20.5 198.911 21.0742C199.093 21.6426 199.184 22.2754 199.184 22.9727V24.0273H191.625V22.3398H196.696V22.1465C196.696 21.7949 196.632 21.4814 196.503 21.2061C196.38 20.9248 196.192 20.7021 195.94 20.5381C195.688 20.374 195.366 20.292 194.974 20.292C194.64 20.292 194.353 20.3652 194.112 20.5117C193.872 20.6582 193.676 20.8633 193.523 21.127C193.377 21.3906 193.266 21.7012 193.189 22.0586C193.119 22.4102 193.084 22.7969 193.084 23.2188V23.5703C193.084 23.9512 193.137 24.3027 193.242 24.625C193.354 24.9473 193.509 25.2256 193.708 25.46C193.913 25.6943 194.159 25.876 194.446 26.0049C194.739 26.1338 195.07 26.1982 195.439 26.1982C195.896 26.1982 196.321 26.1104 196.714 25.9346C197.112 25.7529 197.455 25.4805 197.742 25.1172L198.973 26.4531C198.773 26.7402 198.501 27.0156 198.155 27.2793C197.815 27.543 197.405 27.7598 196.925 27.9297C196.444 28.0938 195.896 28.1758 195.281 28.1758ZM206.241 25.9258V14.5H208.79V28H206.496L206.241 25.9258ZM200.229 23.3594V23.1748C200.229 22.4482 200.312 21.7891 200.476 21.1973C200.64 20.5996 200.88 20.0869 201.196 19.6592C201.513 19.2314 201.902 18.9004 202.365 18.666C202.828 18.4316 203.355 18.3145 203.947 18.3145C204.504 18.3145 204.99 18.4316 205.406 18.666C205.828 18.9004 206.186 19.2344 206.479 19.668C206.777 20.0957 207.018 20.6025 207.199 21.1885C207.381 21.7686 207.513 22.4043 207.595 23.0957V23.5C207.513 24.1621 207.381 24.7773 207.199 25.3457C207.018 25.9141 206.777 26.4121 206.479 26.8398C206.186 27.2617 205.828 27.5898 205.406 27.8242C204.984 28.0586 204.492 28.1758 203.93 28.1758C203.338 28.1758 202.811 28.0557 202.348 27.8154C201.891 27.5752 201.504 27.2383 201.188 26.8047C200.877 26.3711 200.64 25.8613 200.476 25.2754C200.312 24.6895 200.229 24.0508 200.229 23.3594ZM202.761 23.1748V23.3594C202.761 23.752 202.79 24.1182 202.849 24.458C202.913 24.7979 203.016 25.0996 203.156 25.3633C203.303 25.6211 203.49 25.8232 203.719 25.9697C203.953 26.1104 204.237 26.1807 204.571 26.1807C205.005 26.1807 205.362 26.084 205.644 25.8906C205.925 25.6914 206.139 25.4189 206.285 25.0732C206.438 24.7275 206.525 24.3291 206.549 23.8779V22.7266C206.531 22.3574 206.479 22.0264 206.391 21.7334C206.309 21.4346 206.186 21.1797 206.021 20.9688C205.863 20.7578 205.664 20.5938 205.424 20.4766C205.189 20.3594 204.911 20.3008 204.589 20.3008C204.261 20.3008 203.979 20.377 203.745 20.5293C203.511 20.6758 203.32 20.8779 203.174 21.1357C203.033 21.3936 202.928 21.6982 202.857 22.0498C202.793 22.3955 202.761 22.7705 202.761 23.1748ZM210.891 26.7783C210.891 26.4033 211.02 26.0898 211.277 25.8379C211.541 25.5859 211.89 25.46 212.323 25.46C212.757 25.46 213.103 25.5859 213.36 25.8379C213.624 26.0898 213.756 26.4033 213.756 26.7783C213.756 27.1533 213.624 27.4668 213.36 27.7188C213.103 27.9707 212.757 28.0967 212.323 28.0967C211.89 28.0967 211.541 27.9707 211.277 27.7188C211.02 27.4668 210.891 27.1533 210.891 26.7783Z" fill="white"/>
</svg>
