<svg width="44" height="44" viewBox="0 0 44 44" fill="none" xmlns="http://www.w3.org/2000/svg">
    <path d="M33.9575 11.9573C39.5038 18.5612 38.6465 28.411 32.0425 33.9573C25.4386 39.5037 15.5889 38.6463 10.0425 32.0424C4.4962 25.4385 5.35353 15.5888 11.9575 10.0424C14.1354 8.21323 16.6664 7.08056 19.2797 6.62083" stroke="#EC0C0C" stroke-width="4.5" stroke-linecap="round"/>
    <path d="M20.7536 29.3665C20.484 30.2334 19.5628 30.7176 18.6959 30.448C17.8291 30.1784 17.3449 29.2572 17.6144 28.3904C17.884 27.5235 18.8053 27.0393 19.6721 27.3089C20.5389 27.5785 21.0231 28.4997 20.7536 29.3665Z" fill="white"/>
    <path fill-rule="evenodd" clip-rule="evenodd" d="M28.1471 4.8279C29.7167 5.31599 30.2871 6.24923 30.0227 7.09941L22.5362 24.9401C22.2719 25.7903 21.3548 26.261 20.488 25.9914C19.6211 25.7219 19.1327 24.8141 19.3971 23.964L25.3141 5.63514C25.5784 4.78496 26.5775 4.33981 28.1471 4.8279Z" fill="white"/>
</svg>
