<svg width="44" height="44" viewBox="0 0 44 44" fill="none" xmlns="http://www.w3.org/2000/svg">
    <rect width="44" height="44" rx="22" fill="#38A1BE" fill-opacity="0.5"/>
    <path d="M12.25 10.75H19.75V18.25H18.25V13C14.725 14.455 12.25 17.935 12.25 22C12.25 27.37 16.615 31.75 22 31.75C24.5859 31.75 27.0658 30.7228 28.8943 28.8943C30.7228 27.0658 31.75 24.5859 31.75 22C31.75 17.38 28.54 13.51 24.25 12.505V10.96C29.38 12.01 33.25 16.54 33.25 22C33.25 28.195 28.21 33.25 22 33.25C19.0163 33.25 16.1548 32.0647 14.045 29.955C11.9353 27.8452 10.75 24.9837 10.75 22C10.75 17.83 13 14.2 16.36 12.25H12.25V10.75Z" fill="white"/>
</svg>
