<svg width="40" height="40" viewBox="0 0 40 40" fill="none" xmlns="http://www.w3.org/2000/svg">
<path d="M8.33366 8.33337H16.667V16.6667H15.0003V10.8334C11.0837 12.45 8.33366 16.3167 8.33366 20.8334C8.33366 26.8 13.1837 31.6667 19.167 31.6667C22.0402 31.6667 24.7957 30.5253 26.8273 28.4937C28.859 26.4621 30.0003 23.7066 30.0003 20.8334C30.0003 15.7 26.4337 11.4 21.667 10.2834V8.56671C27.367 9.73337 31.667 14.7667 31.667 20.8334C31.667 27.7167 26.067 33.3334 19.167 33.3334C15.8518 33.3334 12.6724 32.0164 10.3282 29.6722C7.98395 27.328 6.66699 24.1486 6.66699 20.8334C6.66699 16.2 9.16699 12.1667 12.9003 10H8.33366V8.33337Z" fill="white"/>
</svg>
